<svg id="visual" viewBox="0 0 540 960" width="540" height="960" xmlns="http://www.w3.org/2000/svg" xmlns:xlink="http://www.w3.org/1999/xlink" version="1.1"><path d="M0 302L10 301C20 300 40 298 60 273.5C80 249 100 202 120 177.8C140 153.7 160 152.3 180 171.8C200 191.3 220 231.7 240 245.3C260 259 280 246 300 231.3C320 216.7 340 200.3 360 189.8C380 179.3 400 174.7 420 176.5C440 178.3 460 186.7 480 209.8C500 233 520 271 530 290L540 309L540 961L530 961C520 961 500 961 480 961C460 961 440 961 420 961C400 961 380 961 360 961C340 961 320 961 300 961C280 961 260 961 240 961C220 961 200 961 180 961C160 961 140 961 120 961C100 961 80 961 60 961C40 961 20 961 10 961L0 961Z" fill="#0f0606"></path><path d="M0 289L10 309.8C20 330.7 40 372.3 60 389.7C80 407 100 400 120 398.2C140 396.3 160 399.7 180 392C200 384.3 220 365.7 240 346.2C260 326.7 280 306.3 300 297C320 287.7 340 289.3 360 316.2C380 343 400 395 420 408.8C440 422.7 460 398.3 480 379.7C500 361 520 348 530 341.5L540 335L540 961L530 961C520 961 500 961 480 961C460 961 440 961 420 961C400 961 380 961 360 961C340 961 320 961 300 961C280 961 260 961 240 961C220 961 200 961 180 961C160 961 140 961 120 961C100 961 80 961 60 961C40 961 20 961 10 961L0 961Z" fill="#210807"></path><path d="M0 535L10 533.2C20 531.3 40 527.7 60 512C80 496.3 100 468.7 120 460.7C140 452.7 160 464.3 180 480.5C200 496.7 220 517.3 240 511.7C260 506 280 474 300 461.5C320 449 340 456 360 460.2C380 464.3 400 465.7 420 476.2C440 486.7 460 506.3 480 517C500 527.7 520 529.3 530 530.2L540 531L540 961L530 961C520 961 500 961 480 961C460 961 440 961 420 961C400 961 380 961 360 961C340 961 320 961 300 961C280 961 260 961 240 961C220 961 200 961 180 961C160 961 140 961 120 961C100 961 80 961 60 961C40 961 20 961 10 961L0 961Z" fill="#2e0906"></path><path d="M0 605L10 617.5C20 630 40 655 60 657.2C80 659.3 100 638.7 120 636.8C140 635 160 652 180 652.7C200 653.3 220 637.7 240 640C260 642.3 280 662.7 300 658C320 653.3 340 623.7 360 625C380 626.3 400 658.7 420 678.8C440 699 460 707 480 709.3C500 711.7 520 708.3 530 706.7L540 705L540 961L530 961C520 961 500 961 480 961C460 961 440 961 420 961C400 961 380 961 360 961C340 961 320 961 300 961C280 961 260 961 240 961C220 961 200 961 180 961C160 961 140 961 120 961C100 961 80 961 60 961C40 961 20 961 10 961L0 961Z" fill="#3c0604"></path><path d="M0 805L10 800.7C20 796.3 40 787.7 60 780C80 772.3 100 765.7 120 771.2C140 776.7 160 794.3 180 798.7C200 803 220 794 240 791.8C260 789.7 280 794.3 300 787.5C320 780.7 340 762.3 360 769.7C380 777 400 810 420 815.8C440 821.7 460 800.3 480 785.7C500 771 520 763 530 759L540 755L540 961L530 961C520 961 500 961 480 961C460 961 440 961 420 961C400 961 380 961 360 961C340 961 320 961 300 961C280 961 260 961 240 961C220 961 200 961 180 961C160 961 140 961 120 961C100 961 80 961 60 961C40 961 20 961 10 961L0 961Z" fill="#490000"></path></svg>