<svg id="visual" viewBox="0 0 960 540" width="960" height="540" xmlns="http://www.w3.org/2000/svg" xmlns:xlink="http://www.w3.org/1999/xlink" version="1.1"><rect x="0" y="0" width="960" height="540" fill="#000000"></rect><defs><linearGradient id="grad1_0" x1="43.8%" y1="0%" x2="100%" y2="100%"><stop offset="14.444444444444446%" stop-color="#650000" stop-opacity="1"></stop><stop offset="85.55555555555554%" stop-color="#650000" stop-opacity="1"></stop></linearGradient></defs><defs><linearGradient id="grad1_1" x1="43.8%" y1="0%" x2="100%" y2="100%"><stop offset="14.444444444444446%" stop-color="#650000" stop-opacity="1"></stop><stop offset="85.55555555555554%" stop-color="#4c0000" stop-opacity="1"></stop></linearGradient></defs><defs><linearGradient id="grad1_2" x1="43.8%" y1="0%" x2="100%" y2="100%"><stop offset="14.444444444444446%" stop-color="#000000" stop-opacity="1"></stop><stop offset="85.55555555555554%" stop-color="#4c0000" stop-opacity="1"></stop></linearGradient></defs><defs><linearGradient id="grad2_0" x1="0%" y1="0%" x2="56.3%" y2="100%"><stop offset="14.444444444444446%" stop-color="#650000" stop-opacity="1"></stop><stop offset="85.55555555555554%" stop-color="#650000" stop-opacity="1"></stop></linearGradient></defs><defs><linearGradient id="grad2_1" x1="0%" y1="0%" x2="56.3%" y2="100%"><stop offset="14.444444444444446%" stop-color="#4c0000" stop-opacity="1"></stop><stop offset="85.55555555555554%" stop-color="#650000" stop-opacity="1"></stop></linearGradient></defs><defs><linearGradient id="grad2_2" x1="0%" y1="0%" x2="56.3%" y2="100%"><stop offset="14.444444444444446%" stop-color="#4c0000" stop-opacity="1"></stop><stop offset="85.55555555555554%" stop-color="#000000" stop-opacity="1"></stop></linearGradient></defs><g transform="translate(960, 0)"><path d="M0 432C-25.8 394.9 -51.6 357.8 -78.8 345.1C-105.9 332.4 -134.4 344.2 -168.3 349.6C-202.3 355 -241.7 354 -269.3 337.8C-297 321.5 -313 289.9 -322.1 256.9C-331.2 223.8 -333.5 189.3 -329.8 158.8C-326 128.3 -316.4 101.7 -332.5 75.9C-348.5 50.1 -390.3 25 -432 0L0 0Z" fill="#410000"></path><path d="M0 288C-17.2 263.3 -34.4 238.5 -52.5 230.1C-70.6 221.6 -89.6 229.5 -112.2 233.1C-134.9 236.6 -161.1 236 -179.6 225.2C-198 214.3 -208.7 193.3 -214.7 171.3C-220.8 149.2 -222.3 126.2 -219.8 105.9C-217.4 85.5 -210.9 67.8 -221.6 50.6C-232.3 33.4 -260.2 16.7 -288 0L0 0Z" fill="#580000"></path><path d="M0 144C-8.6 131.6 -17.2 119.3 -26.3 115C-35.3 110.8 -44.8 114.7 -56.1 116.5C-67.4 118.3 -80.6 118 -89.8 112.6C-99 107.2 -104.3 96.6 -107.4 85.6C-110.4 74.6 -111.2 63.1 -109.9 52.9C-108.7 42.8 -105.5 33.9 -110.8 25.3C-116.2 16.7 -130.1 8.3 -144 0L0 0Z" fill="#650000"></path></g><g transform="translate(0, 540)"><path d="M0 -432C37.1 -439.3 74.2 -446.6 96.1 -421.2C118 -395.8 124.7 -337.7 155.8 -323.4C186.8 -309.2 242.1 -338.7 251.3 -315.1C260.4 -291.4 223.3 -214.5 220.5 -175.8C217.6 -137.1 249 -136.6 256.8 -123.7C264.5 -110.7 248.7 -85.2 274 -62.5C299.2 -39.8 365.6 -19.9 432 0L0 0Z" fill="#410000"></path><path d="M0 -288C24.7 -292.9 49.5 -297.7 64.1 -280.8C78.7 -263.8 83.2 -225.1 103.8 -215.6C124.5 -206.1 161.4 -225.8 167.5 -210.1C173.6 -194.3 148.9 -143 147 -117.2C145.1 -91.4 166 -91.1 171.2 -82.4C176.4 -73.8 165.8 -56.8 182.6 -41.7C199.5 -26.6 243.7 -13.3 288 0L0 0Z" fill="#580000"></path><path d="M0 -144C12.4 -146.4 24.7 -148.9 32 -140.4C39.3 -131.9 41.6 -112.6 51.9 -107.8C62.3 -103.1 80.7 -112.9 83.8 -105C86.8 -97.1 74.4 -71.5 73.5 -58.6C72.5 -45.7 83 -45.5 85.6 -41.2C88.2 -36.9 82.9 -28.4 91.3 -20.8C99.7 -13.3 121.9 -6.6 144 0L0 0Z" fill="#650000"></path></g></svg>